<?xml version="1.0"?>
<svg xmlns="http://www.w3.org/2000/svg" xmlns:xlink="http://www.w3.org/1999/xlink" xmlns:svgjs="http://svgjs.com/svgjs" version="1.1" width="512" height="512" x="0" y="0" viewBox="0 0 507.458 507.458" style="enable-background:new 0 0 512 512" xml:space="preserve"><g>
<g xmlns="http://www.w3.org/2000/svg">
	<path d="M503.842,230.376l-245-228.363c-2.879-2.685-7.348-2.685-10.227,0L121.429,120.562c-3.029,2.824-3.196,7.57-0.372,10.6   s7.571,3.198,10.6,0.373L253.729,17.753l225.954,210.61H27.775l82.626-77.016c3.03-2.824,3.197-7.57,0.373-10.6   c-2.823-3.029-7.57-3.196-10.6-0.373L3.616,230.376c-2.255,2.101-2.994,5.367-1.865,8.234s3.897,4.752,6.979,4.752H33.43v256.595   c0,4.142,3.357,7.5,7.5,7.5h425.597c4.143,0,7.5-3.358,7.5-7.5v-130.85c0-4.142-3.357-7.5-7.5-7.5s-7.5,3.358-7.5,7.5v123.35H48.43   V243.363h410.597v95.744c0,4.142,3.357,7.5,7.5,7.5s7.5-3.358,7.5-7.5v-95.744h24.702c3.081,0,5.85-1.885,6.979-4.752   S506.097,232.477,503.842,230.376z" fill="#00bd62" data-original="#000000" style=""/>
	<path d="M80.734,261.471c-4.143,0-7.5,3.358-7.5,7.5v163.963c0,4.142,3.357,7.5,7.5,7.5h345.99c4.143,0,7.5-3.358,7.5-7.5V268.971   c0-4.142-3.357-7.5-7.5-7.5H80.734z M226.629,276.471h54.198v148.963h-54.198V276.471z M211.629,425.434h-54.197V276.471h54.197   V425.434z M295.828,276.471h54.198v148.963h-54.198V276.471z M88.234,276.471h54.198v148.963H88.234V276.471z M419.224,425.434   h-54.198V276.471h54.198V425.434z" fill="#00bd62" data-original="#000000" style=""/>
	<path d="M307.484,198.499c4.143,0,7.5-3.358,7.5-7.5v-68.416c0-4.142-3.357-7.5-7.5-7.5H199.973c-4.143,0-7.5,3.358-7.5,7.5v68.416   c0,4.142,3.357,7.5,7.5,7.5H307.484z M207.473,130.083h92.511v53.416h-92.511V130.083z" fill="#00bd62" data-original="#000000" style=""/>
</g>















</g></svg>
