<?xml version="1.0"?>
<svg xmlns="http://www.w3.org/2000/svg" xmlns:xlink="http://www.w3.org/1999/xlink" xmlns:svgjs="http://svgjs.com/svgjs" version="1.1" width="512" height="512" x="0" y="0" viewBox="0 0 419 419.98139" style="enable-background:new 0 0 512 512" xml:space="preserve" class=""><g><path xmlns="http://www.w3.org/2000/svg" d="m7.492188 37.960938c-3.867188 0-7 3.136718-7 7v368c.0625 3.898437 3.242187 7.023437 7.136718 7.019531h388c3.867188 0 7-3.132813 7-7 0-3.863281-3.132812-7-7-7h-381.136718v-361.019531c0-3.863282-3.136719-7-7-7zm0 0" fill="#00bd62" data-original="#000000" style="" class=""/><path xmlns="http://www.w3.org/2000/svg" d="m377.519531 1.375c-3.109375-2.300781-7.492187-1.648438-9.792969 1.460938l-68.386718 92.363281-57.796875-42.382813c-1.535157-1.121094-3.457031-1.574218-5.332031-1.25-1.871094.320313-3.53125 1.390625-4.601563 2.964844l-69.667969 102.664062-52.550781-44.472656c-1.5625-1.320312-3.621094-1.890625-5.640625-1.566406-2.019531.328125-3.792969 1.523438-4.859375 3.269531l-58.464844 95.996094c-1.308593 2.136719-1.378906 4.8125-.179687 7.011719 1.199218 2.203125 3.484375 3.59375 5.992187 3.648437 2.503907.058594 4.851563-1.230469 6.144531-3.378906l54.203126-89.007813 52.25 44.214844c1.515624 1.28125 3.503906 1.859375 5.472656 1.589844s3.726562-1.359375 4.84375-3.003906l69.960937-103.101563 57.566407 42.207031c3.105468 2.28125 7.472656 1.617188 9.765624-1.476562l72.527344-97.960938c2.300782-3.105468 1.648438-7.488281-1.453125-9.789062zm0 0" fill="#00bd62" data-original="#000000" style="" class=""/><path xmlns="http://www.w3.org/2000/svg" d="m377.726562 82.835938-68.386718 92.363281-57.796875-42.382813c-1.535157-1.121094-3.457031-1.574218-5.332031-1.25-1.871094.320313-3.53125 1.390625-4.601563 2.964844l-69.667969 102.664062-52.550781-44.472656c-1.5625-1.320312-3.621094-1.890625-5.640625-1.566406-2.019531.328125-3.792969 1.523438-4.859375 3.269531l-58.457031 95.992188c-1.3125 2.136719-1.382813 4.8125-.183594 7.015625 1.199219 2.199218 3.484375 3.589844 5.992188 3.648437 2.503906.054688 4.851562-1.234375 6.148437-3.378906l54.199219-89.007813 52.25 44.210938c1.515625 1.28125 3.503906 1.859375 5.472656 1.589844 1.96875-.265625 3.726562-1.359375 4.84375-3.003906l69.960938-103.097657 57.566406 42.207031c3.105468 2.277344 7.472656 1.617188 9.765625-1.480468l72.527343-97.960938c2.300782-3.109375 1.648438-7.492187-1.460937-9.792968-3.105469-2.300782-7.488281-1.644532-9.789063 1.460937zm0 0" fill="#00bd62" data-original="#000000" style="" class=""/><path xmlns="http://www.w3.org/2000/svg" d="m407.519531 161.375c-3.109375-2.300781-7.492187-1.648438-9.792969 1.460938l-68.386718 92.363281-57.796875-42.382813c-1.535157-1.121094-3.457031-1.574218-5.332031-1.25-1.871094.320313-3.53125 1.390625-4.601563 2.964844l-69.667969 102.664062-52.550781-44.472656c-1.5625-1.320312-3.621094-1.890625-5.640625-1.566406-2.019531.328125-3.792969 1.523438-4.859375 3.269531l-58.457031 95.992188c-1.3125 2.136719-1.382813 4.8125-.183594 7.015625 1.199219 2.199218 3.484375 3.589844 5.992188 3.648437 2.503906.054688 4.851562-1.234375 6.148437-3.378906l54.199219-89.007813 52.25 44.210938c1.515625 1.28125 3.503906 1.859375 5.472656 1.589844 1.96875-.265625 3.726562-1.359375 4.84375-3.003906l69.960938-103.097657 57.566406 42.207031c3.105468 2.277344 7.472656 1.617188 9.765625-1.480468l72.527343-97.960938c2.296876-3.105468 1.644532-7.484375-1.457031-9.785156zm0 0" fill="#00bd62" data-original="#000000" style="" class=""/></g></svg>
